<?xml version="1.0" encoding="UTF-8" standalone="no"?>
<!DOCTYPE svg PUBLIC "-//W3C//DTD SVG 1.1//EN" "http://www.w3.org/Graphics/SVG/1.1/DTD/svg11.dtd">
<svg width="100%" height="100%" viewBox="0 0 648 633" version="1.1" xmlns="http://www.w3.org/2000/svg" xmlns:xlink="http://www.w3.org/1999/xlink" xml:space="preserve" xmlns:serif="http://www.serif.com/" style="fill-rule:evenodd;clip-rule:evenodd;stroke-linejoin:round;stroke-miterlimit:2;">
    <g transform="matrix(0.653846,0,0,0.653846,-68.4935,-46.5367)">
        <path d="M687.328,276.087L512.818,276.087C504.593,276.097 497.828,282.862 497.818,291.087L497.818,678.937L495.818,679.547L453.008,692.657C448.812,693.936 444.305,691.541 443.018,687.347L315.678,271.397C314.396,267.2 316.793,262.692 320.988,261.407L386.958,241.207L578.208,182.667L644.178,162.467C644.939,162.233 645.731,162.113 646.528,162.113C650.031,162.113 653.144,164.417 654.168,167.767L686.718,274.087L687.328,276.087Z" style="fill:rgb(242,242,242);fill-rule:nonzero;"/>
    </g>
    <g transform="matrix(0.653846,0,0,0.653846,-68.4935,-46.5367)">
        <path d="M725.408,274.087L686.178,145.947C684,138.822 677.378,133.921 669.927,133.921C668.239,133.921 666.561,134.173 664.948,134.667L572.198,163.057L380.958,221.607L288.208,250.007C279.297,252.743 274.208,262.32 276.928,271.237L411.008,709.167C413.195,716.291 419.816,721.19 427.268,721.197C428.953,721.198 430.629,720.945 432.238,720.447L495.818,700.987L497.818,700.367L497.818,698.277L495.818,698.887L431.648,718.537C423.782,720.935 415.335,716.447 412.918,708.587L278.848,270.647C278.41,269.221 278.187,267.737 278.187,266.245C278.187,259.673 282.512,253.833 288.798,251.917L381.548,223.517L572.788,164.977L665.538,136.577C666.968,136.141 668.454,135.918 669.948,135.917C676.513,135.932 682.342,140.251 684.268,146.527L723.318,274.087L723.938,276.087L726.018,276.087L725.408,274.087Z" style="fill:rgb(63,61,86);fill-rule:nonzero;"/>
    </g>
    <g transform="matrix(0.653846,0,0,0.653846,-68.4935,-46.5367)">
        <path d="M398.863,261.734C394.917,261.731 391.411,259.139 390.251,255.367L377.371,213.295C377.11,212.441 376.977,211.553 376.977,210.66C376.977,206.716 379.57,203.209 383.342,202.055L559.281,148.191C564.002,146.751 569.073,149.444 570.522,154.162L583.402,196.234C584.842,200.955 582.149,206.025 577.432,207.475L401.492,261.339C400.64,261.6 399.754,261.733 398.863,261.734Z" style="fill-rule:nonzero;"/>
    </g>
    <g transform="matrix(0.653846,0,0,0.653846,112.087,41.0218)">
        <circle cx="190.154" cy="24.955" r="20"/>
    </g>
    <g transform="matrix(0.653846,0,0,0.653846,112.087,41.0218)">
        <circle cx="190.154" cy="24.955" r="12.665" style="fill:white;"/>
    </g>
    <g transform="matrix(0.653846,0,0,0.653846,-68.4935,-46.5367)">
        <path d="M878.818,716.087L540.818,716.087C536.157,716.082 532.324,712.248 532.318,707.587L532.318,302.587C532.324,297.926 536.157,294.092 540.818,294.087L878.818,294.087C883.479,294.092 887.313,297.926 887.318,302.587L887.318,707.587C887.313,712.248 883.479,716.081 878.818,716.087Z" style="fill:rgb(230,230,230);fill-rule:nonzero;"/>
    </g>
    <g transform="matrix(0.653846,0,0,0.653846,-68.4935,-46.5367)">
        <path d="M723.318,274.087L512.818,274.087C503.497,274.1 495.831,281.766 495.818,291.087L495.818,698.887L497.818,698.277L497.818,291.087C497.828,282.862 504.593,276.097 512.818,276.087L723.938,276.087L723.318,274.087ZM906.818,274.087L512.818,274.087C503.497,274.1 495.831,281.766 495.818,291.087L495.818,749.087C495.831,758.408 503.497,766.074 512.818,766.087L906.818,766.087C916.139,766.074 923.805,758.408 923.818,749.087L923.818,291.087C923.805,281.766 916.139,274.1 906.818,274.087ZM921.818,749.087C921.808,757.312 915.043,764.077 906.818,764.087L512.818,764.087C504.593,764.077 497.828,757.312 497.818,749.087L497.818,291.087C497.828,282.862 504.593,276.097 512.818,276.087L906.818,276.087C915.043,276.097 921.808,282.862 921.818,291.087L921.818,749.087Z" style="fill:rgb(63,61,86);fill-rule:nonzero;"/>
    </g>
    <g transform="matrix(0.653846,0,0,0.653846,-68.4935,-46.5367)">
        <path d="M801.818,318.087L617.818,318.087C612.883,318.081 608.824,314.022 608.818,309.087L608.818,265.087C608.824,260.152 612.883,256.092 617.818,256.087L801.818,256.087C806.754,256.092 810.813,260.152 810.818,265.087L810.818,309.087C810.813,314.022 806.754,318.081 801.818,318.087Z" style="fill-rule:nonzero;"/>
    </g>
    <g transform="matrix(0.653846,0,0,0.653846,112.087,41.0218)">
        <circle cx="433.636" cy="105.174" r="20"/>
    </g>
    <g transform="matrix(0.653846,0,0,0.653846,112.087,41.0218)">
        <circle cx="433.636" cy="105.174" r="12.182" style="fill:white;"/>
    </g>
    <g transform="matrix(1.35134,0,0,1.35134,-90.1811,-205.543)">
        <text x="224.41px" y="586px" style="font-family:'TimesNewRomanPSMT', 'Times New Roman', serif;font-size:44.673px;fill:rgb(116,116,116);">No <tspan x="289.37px 313.539px 333.367px " y="586px 586px 586px ">Tas</tspan>ks</text>
    </g>
</svg>
