<svg id="Icon_metro-sun4" data-name="Icon metro-sun4" xmlns="http://www.w3.org/2000/svg" width="42" height="42" viewBox="0 0 42 42">
  <path id="Icon_metro-sun4-2" data-name="Icon metro-sun4" d="M26.463,14.512A11.308,11.308,0,1,0,37.77,25.82,11.321,11.321,0,0,0,26.463,14.512Zm0-3.231a1.614,1.614,0,0,0,1.615-1.615V6.435a1.615,1.615,0,1,0-3.231,0V9.666A1.613,1.613,0,0,0,26.463,11.282Zm0,29.077a1.614,1.614,0,0,0-1.615,1.615V45.2a1.615,1.615,0,0,0,3.231,0V41.974A1.616,1.616,0,0,0,26.463,40.359Zm12.561-24.82,2.284-2.284a1.615,1.615,0,1,0-2.284-2.284L36.74,13.255a1.615,1.615,0,0,0,2.284,2.284ZM13.9,36.1l-2.284,2.284A1.615,1.615,0,1,0,13.9,40.672l2.284-2.284A1.615,1.615,0,1,0,13.9,36.1ZM11.924,25.82A1.616,1.616,0,0,0,10.309,24.2H7.078a1.615,1.615,0,1,0,0,3.231h3.231A1.614,1.614,0,0,0,11.924,25.82ZM45.847,24.2H42.617a1.615,1.615,0,1,0,0,3.231h3.231a1.615,1.615,0,1,0,0-3.231ZM13.9,15.539a1.615,1.615,0,0,0,2.284-2.284L13.9,10.97a1.615,1.615,0,0,0-2.284,2.284ZM39.028,36.1a1.615,1.615,0,0,0-2.284,2.284l2.284,2.284a1.615,1.615,0,1,0,2.284-2.284Z" transform="translate(-5.463 -4.82)" fill="#eaeaea"/>
  <circle id="Ellipse_1" data-name="Ellipse 1" cx="9" cy="9" r="9" transform="translate(12 12)" fill="#eaeaea"/>
</svg>
